<svg version="1.1" id="Layer_1" xmlns="http://www.w3.org/2000/svg" x="0" y="0" viewBox="0 0 120.9 29.6" style="enable-background:new 0 0 120.9 29.6" xml:space="preserve"><style>.st0{fill:#130c0e}</style><path class="st0" d="M0 0h5v11.8h.1c.6-1 1.5-1.7 2.5-2.3 1-.5 2.2-.9 3.4-.9 3.4 0 7 2.2 7 8.6V29h-5V17.9c0-2.9-1.1-5-3.8-5-2 0-3.3 1.3-3.9 2.8-.2.4-.2 1-.2 1.5v11.9H0V0zM39.8 18.9c0 7.3-5.1 10.6-10.2 10.6-5.6 0-10-3.9-10-10.2 0-6.5 4.3-10.6 10.3-10.6 6-.1 9.9 4.2 9.9 10.2zm-15 .2c0 3.8 1.8 6.7 4.9 6.7 2.9 0 4.9-2.8 4.9-6.9 0-3.1-1.4-6.6-4.8-6.6-3.5 0-5 3.5-5 6.8zM41.3 9.1h4.3l.2 3.8h.2c1-2.8 3.3-4.2 5.4-4.2.5 0 .8.1 1.2.1v4.7c-.4-.1-.8-.2-1.5-.2-2.4 0-4 1.5-4.5 3.8-.1.5-.2 1-.2 1.5V29h-5s0-18.1-.1-19.9z"/><path d="M61.3 3.6c0 1.5-1.1 2.7-2.9 2.7-1.7 0-2.7-1.2-2.7-2.7S56.8.9 58.5.9c1.7-.1 2.7 1.1 2.8 2.7z" style="fill:#0054a5"/><path class="st0" d="m63.5 26.1 7.5-9.5c1-1.2 1.8-2.2 3-3.3v-.1h-9.7V9.1h15.8v3.1l-7.3 9.4c-1 1.2-1.9 2.3-3 3.4h10.5v4H63.5v-2.9zM55.9 29V9.1h5v13.4l-5 6.5zM101.4 18.9c0 7.3-5.1 10.6-10.2 10.6-5.6 0-10-3.9-10-10.2 0-6.5 4.3-10.6 10.3-10.6 5.9-.1 9.9 4.2 9.9 10.2zm-15 .2c0 3.8 1.8 6.7 4.9 6.7 2.9 0 4.9-2.8 4.9-6.9 0-3.1-1.4-6.6-4.8-6.6-3.6 0-5 3.5-5 6.8zM102.8 9.1h4.4l.2 3h.1c.8-1.5 3-3.4 6.3-3.4 3.4 0 7 2.2 7 8.5V29h-5V17.7c0-2.9-1.1-5-3.8-5-2 0-3.4 1.4-3.9 3-.2.5-.2 1.1-.2 1.7V29h-5c.2 0 .1-18.2-.1-19.9z"/></svg>
